<?xml version="1.0" ?><!-- Uploaded to: SVG Repo, www.svgrepo.com, Generator: SVG Repo Mixer Tools -->
<svg width="800px" height="800px" viewBox="0 -0.5 83 83" fill="none" xmlns="http://www.w3.org/2000/svg"><path clip-rule="evenodd" d="M41.5002 0.081543C19.0599 0.081543 0.870117 18.2723 0.870117 40.7116C0.870117 63.1519 19.0599 81.3427 41.5002 81.3427C63.9395 81.3427 82.1303 63.1519 82.1303 40.7116C82.1303 18.2723 63.9395 0.081543 41.5002 0.081543V0.081543Z" fill="url(#paint0_radial)" fill-rule="evenodd"/><path clip-rule="evenodd" d="M44.8636 55.716C34.2816 56.7631 29.5936 34.9363 31.0892 27.1615C32.1674 21.5592 50.8973 20.7516 53.1765 23.0609C57.4712 27.413 56.0389 54.6097 44.8636 55.716Z" fill="#282829" fill-rule="evenodd"/><path d="M44.9644 56.7145C44.1467 56.796 43.3601 56.7568 42.6078 56.6119C38.7566 55.8717 35.7915 52.3916 33.6944 47.948C31.6728 43.6674 30.4357 38.4523 29.9971 34.0158C29.7236 31.2518 29.7588 28.7675 30.1037 26.9722C30.2647 26.1333 30.7072 25.3901 31.368 24.7383C33.2187 22.9128 36.9472 21.7813 40.8356 21.2402C44.6415 20.7121 48.6586 20.7312 51.1751 21.215C52.4233 21.4554 53.3829 21.8376 53.8948 22.3566C55.1128 23.5907 55.9175 26.247 56.2443 29.5541C56.6265 33.4173 56.3962 38.2703 55.4417 42.7682C54.4731 47.3415 52.7452 51.59 50.1362 54.1638C48.6858 55.5951 46.9689 56.5164 44.9644 56.7145V56.7145ZM42.986 54.6366C43.5573 54.7472 44.1527 54.7764 44.7672 54.716C46.2769 54.5662 47.5955 53.849 48.727 52.7316C51.0253 50.4635 52.5782 46.5802 53.4744 42.3508C54.3866 38.049 54.6089 33.4233 54.2458 29.7502C53.9622 26.8817 53.3487 24.6629 52.4626 23.7657C52.2523 23.5525 51.6579 23.3564 50.797 23.1904C48.4706 22.7438 44.7099 22.7317 41.1112 23.2316C37.5939 23.7204 34.2868 24.682 32.7771 26.1706C32.404 26.5387 32.1596 26.933 32.0791 27.3494C31.7683 28.9657 31.7422 31.2468 31.9967 33.8186C32.4151 38.052 33.5918 43.0216 35.5129 47.0901C37.3565 50.9966 39.864 54.0361 42.986 54.6366V54.6366Z" fill="#FED785"/><path d="M61.3355 14.5258C62.0677 14.6355 62.5736 15.3204 62.463 16.0526C62.3534 16.7859 61.6694 17.2908 60.9362 17.1811C59.4255 16.9508 57.6714 16.6179 55.9394 16.0939C54.1591 15.5548 52.395 14.8115 50.9114 13.7675C50.307 13.342 50.1611 12.5052 50.5866 11.8997C51.012 11.2942 51.8488 11.1484 52.4543 11.5748C53.6683 12.4298 55.173 13.0564 56.7159 13.5231C58.305 14.0038 59.9304 14.3126 61.3355 14.5258V14.5258Z" fill="#2B2A29"/><path d="M23.8985 21.3576C23.1763 21.5255 22.4552 21.0769 22.2872 20.3548C22.1192 19.6336 22.5678 18.9125 23.29 18.7445C24.676 18.4176 26.2722 17.9791 27.814 17.3736C29.3147 16.7832 30.765 16.0379 31.9046 15.0894C32.4719 14.6177 33.3157 14.6952 33.7875 15.2634C34.2602 15.8307 34.1827 16.6746 33.6145 17.1463C32.2184 18.308 30.5186 19.1921 28.7907 19.871C27.1019 20.5338 25.382 21.0075 23.8985 21.3576V21.3576Z" fill="#2B2A29"/><path d="M37.5198 27.976C37.4484 27.3213 37.732 26.7017 38.1534 26.5911C41.8638 25.546 43.7165 25.2302 47.4872 25.2604C47.9086 25.1498 48.3079 25.5913 48.3794 26.2441C48.7505 30.5519 37.8577 31.9892 37.5198 27.976V27.976Z" fill="#E5E4E5"/><path d="M39.0699 48.514C38.9542 48.7846 38.9532 49.0501 39.0336 49.3076C39.5728 51.0406 45.5512 54.4603 46.7612 51.6179C48.3242 47.5636 40.5162 44.7333 39.0699 48.514Z" fill="#DE6C69"/><defs><radialGradient cx="0" cy="0" gradientTransform="translate(56.1771 32.5502) rotate(180) scale(128.795 128.792)" gradientUnits="userSpaceOnUse" id="paint0_radial" r="1"><stop stop-color="#FFE28E"/><stop offset="1" stop-color="#F9B86C"/></radialGradient></defs></svg>